<svg width="24" height="24" viewBox="0 0 24 24" fill="none" xmlns="http://www.w3.org/2000/svg">
<path d="M6.50197 7.97506C6.63733 6.61089 7.27501 5.34575 8.2911 4.4255C9.30718 3.50525 10.6291 2.99561 12 2.99561C13.3708 2.99561 14.6928 3.50525 15.7088 4.4255C16.7249 5.34575 17.3626 6.61089 17.498 7.97506L17.784 10.8411C17.802 11.0161 17.81 11.1031 17.821 11.1891C17.965 12.3722 18.3716 13.5082 19.011 14.5141L19.203 14.8051L20.064 16.0971C20.851 17.2771 21.244 17.8661 21.072 18.3411C21.0386 18.4317 20.9936 18.5157 20.937 18.5931C20.637 19.0001 19.928 19.0001 18.511 19.0001H5.48897C4.07197 19.0001 3.36297 19.0001 3.06297 18.5931C3.00648 18.5159 2.96136 18.431 2.92897 18.3411C2.75597 17.8661 3.14897 17.2761 3.93497 16.0971L4.79697 14.8051L4.98897 14.5141C5.62837 13.5082 6.03494 12.3722 6.17897 11.1891C6.18897 11.1031 6.19897 11.0161 6.21597 10.8411L6.50197 7.97506Z" fill="white"/>
<path d="M10.0679 21.6301C10.1819 21.7361 10.4329 21.8302 10.7829 21.8972C11.1319 21.9642 11.5599 22.0002 11.9999 22.0002C12.4399 22.0002 12.8679 21.9642 13.2169 21.8972C13.5659 21.8302 13.8169 21.7362 13.9319 21.6292" stroke="white" stroke-width="2" stroke-linecap="round"/>
</svg>
